<svg id="icon" xmlns="http://www.w3.org/2000/svg" viewBox="0 0 512 512"><defs><style>.cls-1{fill:#fff;}.cls-2{fill:#ddd;}.cls-3{fill:#abe5ff;}.cls-4{fill:#7cc8dd;}.cls-5{fill:#ffeb99;}.cls-6{fill:#eab67d;}.cls-7{fill:#fcd8c0;}.cls-8{fill:#ef9e86;}.cls-9{fill:#d7f5ff;}.cls-10{fill:#4d4d4d;}</style></defs><title>payment app finger</title><rect class="cls-1" x="34.65" y="28.03" width="241.01" height="455.94" rx="33.93"/><path class="cls-2" d="M275.66,356.55l-63.44-38-29.66-28.28h0a41.05,41.05,0,0,0,.12,60.13l57.24,53.06L208,407.74s-26.63,21.53-2.8,53.55L239.06,484h2.68a33.92,33.92,0,0,0,33.92-33.92Z"/><path class="cls-2" d="M241.74,484a33.92,33.92,0,0,0,33.92-33.92V131.51h-3.87a26.25,26.25,0,0,0-26.25,26.25V432.24A25.79,25.79,0,0,1,219.75,458H101.12a20.76,20.76,0,0,0-20.76,20.75V484Z"/><path class="cls-3" d="M68.58,483.61H241.74a33.92,33.92,0,0,0,33.92-33.93v-29.9h-241v29.9A33.93,33.93,0,0,0,68.58,483.61Z"/><path class="cls-4" d="M245.54,419.78H198.89c-4.33,8.84-6.52,22.09,4,38.25H101.12a20.76,20.76,0,0,0-20.76,20.75v4.83H241.74a33.92,33.92,0,0,0,33.92-33.93v-29.9Z"/><path class="cls-3" d="M241.74,28H68.58A33.93,33.93,0,0,0,34.65,62v29.9h241V62A33.92,33.92,0,0,0,241.74,28Z"/><circle class="cls-5" cx="156.01" cy="256" r="70.39"/><path class="cls-6" d="M182.56,290.29h0A41,41,0,0,0,169.8,325a70.08,70.08,0,0,0,32.44-16Z"/><path class="cls-7" d="M317.89,266.85a19,19,0,0,0,0,26.84l-6.52-6.53a19,19,0,0,0-26.84,0h0a19,19,0,0,0,0,26.84l-5.76-5.76a19,19,0,0,0-26.83,26.84l-39.67-39.67a19,19,0,0,0-26.84,0h0a19,19,0,0,0,0,26.84L242.15,379l24.65,24.65c-14.5-2.26-31.23-.07-44.17,2.63a21.91,21.91,0,0,0-16.89,26.22h0a22,22,0,0,0,22.89,17.12,134.74,134.74,0,0,1,66.46,13.31A62.32,62.32,0,0,0,341.54,466h0a50,50,0,0,1,44,6.37l11.22,7.75,80.63-80.63-75.89-75.89-51.95-51.95-4.78-4.77A19,19,0,0,0,317.89,266.85Z"/><path class="cls-8" d="M270.94,407.74a15.1,15.1,0,0,0-1.44-19.92l-71.72-70.39c-15.47-15.47-3.18-26.89-2.91-27.14a18.78,18.78,0,0,0-9.44,5.12,19,19,0,0,0,0,26.84L242.15,379l24.65,24.65c-1.11-.17-2.24-.31-3.37-.43Z"/><path class="cls-8" d="M412.08,444.16l-8,8a14.58,14.58,0,0,1-17.4,2.41c-10.22-5.66-27.37-12.31-42.35-4.4A50.5,50.5,0,0,1,323.36,456a54.55,54.55,0,0,1-30.12-7.39c-27.1-15.56-52-13.1-59.1-11.94a27.74,27.74,0,0,1-5.15.41c-22.1-.58-22-16.89-22-17.93a21.76,21.76,0,0,0-1.24,13.35h0a22,22,0,0,0,22.89,17.12,134.74,134.74,0,0,1,66.46,13.31A62.32,62.32,0,0,0,341.54,466a50,50,0,0,1,44,6.37l11.22,7.75,37-37A16.14,16.14,0,0,0,412.08,444.16Z"/><path class="cls-9" d="M88.92,54.23a20.86,20.86,0,0,0,20.86-20.86V28H68.58a33.92,33.92,0,0,0-33,26.2Z"/><path class="cls-10" d="M241.74,489.68a39.44,39.44,0,0,0,22.16-6.77,5.71,5.71,0,1,0-6.39-9.46,28.06,28.06,0,0,1-15.77,4.81H68.58a28.25,28.25,0,0,1-28.22-28.21v-24.2H179.87a5.71,5.71,0,1,0,0-11.41H40.36V97.56H250a5.71,5.71,0,1,0,0-11.41H40.36V62A28.24,28.24,0,0,1,68.58,33.74H241.74A28.24,28.24,0,0,1,270,62v201.6a5.71,5.71,0,1,0,11.41,0V62a39.68,39.68,0,0,0-39.63-39.63H68.58A39.68,39.68,0,0,0,28.94,62v388.1a39.68,39.68,0,0,0,39.64,39.63Z"/><path class="cls-10" d="M130.45,54.23a5.71,5.71,0,1,0,0,11.42h49.42a5.71,5.71,0,1,0,0-11.42Z"/><path class="cls-10" d="M179.87,446H130.45a5.71,5.71,0,0,0,0,11.42h49.42a5.71,5.71,0,1,0,0-11.42Z"/><path class="cls-10" d="M211.83,56.77a6.58,6.58,0,0,0-.71-.87,5.72,5.72,0,0,0-8.08,0,7.48,7.48,0,0,0-.71.87,7.17,7.17,0,0,0-.52,1,5.51,5.51,0,0,0-.32,1.07,5.19,5.19,0,0,0,0,2.22,5.31,5.31,0,0,0,.32,1.07,6.64,6.64,0,0,0,.52,1A7.48,7.48,0,0,0,203,64a5.72,5.72,0,0,0,8.08,0,5.59,5.59,0,0,0,1.23-1.86,6.06,6.06,0,0,0,.33-1.07,5.66,5.66,0,0,0,0-2.22,6.33,6.33,0,0,0-.33-1.07A7.17,7.17,0,0,0,211.83,56.77Z"/><path class="cls-10" d="M92.32,225.45a5.72,5.72,0,0,0-7.38,3.29A76.14,76.14,0,0,0,156,332.09c1.16,0,2.31,0,3.45-.07a5.71,5.71,0,0,0-.51-11.41c-1,0-2,.07-2.94.07A64.73,64.73,0,0,1,95.6,232.83,5.72,5.72,0,0,0,92.32,225.45Z"/><path class="cls-10" d="M220.68,256a5.71,5.71,0,0,0,11.42,0A76.17,76.17,0,0,0,156,179.91a5.71,5.71,0,1,0,0,11.41A64.75,64.75,0,0,1,220.68,256Z"/><path class="cls-10" d="M113.71,205.45a5.73,5.73,0,0,0,3.43-1.15q1.14-.87,2.34-1.68A5.71,5.71,0,1,0,113,193.2c-.93.64-1.85,1.3-2.75,2a5.71,5.71,0,0,0,3.44,10.27Z"/><path class="cls-10" d="M178,268.61a18.34,18.34,0,0,0-18.32-18.32h-7.29a6.9,6.9,0,0,1,0-13.79H166.5a5.71,5.71,0,1,0,0-11.42h-4.78v-4a5.71,5.71,0,0,0-11.42,0v4.07a18.31,18.31,0,0,0,2.06,36.51h7.29a6.9,6.9,0,1,1,0,13.79H145.52a5.71,5.71,0,0,0,0,11.42h4.78v3.95a5.71,5.71,0,0,0,11.42,0V286.8A18.34,18.34,0,0,0,178,268.61Z"/><path class="cls-10" d="M348.77,262.81a24.72,24.72,0,0,0-34.91,0h0a24.54,24.54,0,0,0-7.07,14.71,24.71,24.71,0,0,0-33.42,20.78,24.78,24.78,0,0,0-8-1.32,24.67,24.67,0,0,0-24.1,19.35l-25-25a24.69,24.69,0,0,0-34.91,34.91L252.08,397a162.9,162.9,0,0,0-30.62,3.69A27.64,27.64,0,0,0,229,455.29,129.53,129.53,0,0,1,292.62,468a67.62,67.62,0,0,0,50.7,3.35A44.54,44.54,0,0,1,382.25,477l11.23,7.75a5.6,5.6,0,0,0,3.24,1,5.7,5.7,0,0,0,4-1.68l80.62-80.62a5.69,5.69,0,0,0,0-8.07Zm47.28,209.88-7.31-5.05A56,56,0,0,0,357,457.81a55.36,55.36,0,0,0-17.25,2.74,56.4,56.4,0,0,1-42.19-2.79,141,141,0,0,0-69.28-13.87,16.22,16.22,0,0,1-14.77-25,16,16,0,0,1,10.28-7.06c16.41-3.43,31-4.32,42.12-2.58a5.71,5.71,0,0,0,4.92-9.67l-81.38-81.38a13.27,13.27,0,1,1,18.77-18.76l39.67,39.67,31.35,31.35a5.71,5.71,0,0,0,8.08-8.07L256,331a13.27,13.27,0,1,1,18.77-18.76l5.75,5.75h0l25.6,25.6a5.71,5.71,0,1,0,8.08-8.07L288.57,310h0l0,0a13.27,13.27,0,0,1,18.78-18.74l6.53,6.52,19.07,19.07a5.71,5.71,0,0,0,8.07-8.07l-19.07-19.07a13.27,13.27,0,0,1,18.76-18.77L469.27,399.46Z"/></svg>